
            <svg viewBox="0 0 576 91" fill="none" xmlns="http://www.w3.org/2000/svg" xmlns:anim="http://www.w3.org/2000/anim" anim="" anim:transform-origin="50% 50%" anim:duration="1" anim:ease="ease-in-out">
                <g id="MovieFlix">
                    <g id="play BTN">
                        <g id="btn" filter="url(#filter0_d_0_3)">
                            <rect x="4" y="1" width="81.3453" height="81.3453" rx="40.6727" fill="url(#paint0_linear_0_3)"></rect>
                        </g>
                        <path id="play" d="M57.1926 43.4423L39.2736 52.8775C37.9418 53.5787 36.3418 52.613 36.3418 51.1078L36.3418 32.2375C36.3418 30.7323 37.9418 29.7666 39.2736 30.4678L57.1926 39.903C58.6169 40.6529 58.6169 42.6924 57.1926 43.4423Z" stroke="white" stroke-width="4"></path>
                    </g>
                    <g id="text">
                        <path id="MovieFlix_2" d="M156.5 65.07C152.347 65.07 150.27 64.6033 150.27 63.67L148.8 35.6L140.26 64.02C140.073 64.58 138.487 64.86 135.5 64.86C132.513 64.86 130.973 64.6033 130.88 64.09L122.06 35.32L121.08 63.25C121.033 63.95 120.147 64.44 118.42 64.72C116.693 64.9533 115.247 65.07 114.08 65.07C112.96 65.07 111.863 65 110.79 64.86C108.55 64.5333 107.453 63.95 107.5 63.11L109.11 17.61C109.11 16.49 111.957 15.93 117.65 15.93C119.33 15.93 121.383 16.07 123.81 16.35C126.237 16.5833 127.59 17.0733 127.87 17.82L135.71 39.87L142.57 17.75C142.99 16.5367 146.21 15.93 152.23 15.93C153.957 15.93 156.01 16.07 158.39 16.35C160.817 16.5833 162.03 17.0267 162.03 17.68L164.06 63.6C164.06 64.1133 163.15 64.4867 161.33 64.72C159.51 64.9533 157.9 65.07 156.5 65.07ZM173.666 60.87C170.773 57.65 169.326 53.1933 169.326 47.5C169.326 41.8067 170.773 37.35 173.666 34.13C176.606 30.91 180.549 29.3 185.496 29.3C190.443 29.3 194.363 30.91 197.256 34.13C200.149 37.35 201.596 41.8067 201.596 47.5C201.596 53.1933 200.149 57.65 197.256 60.87C194.363 64.09 190.443 65.7 185.496 65.7C180.549 65.7 176.606 64.09 173.666 60.87ZM185.496 40.99C182.883 40.99 181.576 43.1367 181.576 47.43C181.576 51.7233 182.883 53.87 185.496 53.87C188.156 53.87 189.486 51.7233 189.486 47.43C189.486 43.1367 188.156 40.99 185.496 40.99ZM203.815 30.21C203.675 29.8367 205.845 29.65 210.325 29.65C214.851 29.65 217.115 29.7667 217.115 30L222.155 53.8L225.935 30.35C226.075 29.93 228.385 29.72 232.865 29.72C237.391 29.72 239.585 29.9067 239.445 30.28L229.575 64.51C229.248 64.9767 226.471 65.21 221.245 65.21C216.018 65.21 213.218 64.86 212.845 64.16L203.815 30.21ZM255.858 64.58C255.858 64.9533 253.712 65.14 249.418 65.14C245.172 65.14 243.048 64.9767 243.048 64.65V30.28C243.048 29.9533 245.172 29.79 249.418 29.79C253.712 29.79 255.858 29.93 255.858 30.21V64.58ZM255.858 26.08C255.858 26.4067 253.712 26.57 249.418 26.57C245.172 26.57 243.048 26.43 243.048 26.15V16.07C243.048 15.6033 245.172 15.37 249.418 15.37C253.712 15.37 255.858 15.51 255.858 15.79V26.08ZM288.649 63.11C285.709 64.8367 281.929 65.7 277.309 65.7C272.689 65.7 268.792 64.1367 265.619 61.01C262.446 57.8367 260.859 53.4733 260.859 47.92C260.859 42.32 262.376 37.8167 265.409 34.41C268.489 31.0033 272.362 29.3 277.029 29.3C281.696 29.3 285.289 30.49 287.809 32.87C290.376 35.25 291.659 38.1433 291.659 41.55C291.659 49.11 287.319 52.89 278.639 52.89H273.809C273.809 54.29 274.182 55.27 274.929 55.83C275.722 56.3433 276.866 56.6 278.359 56.6C281.626 56.6 284.729 55.8533 287.669 54.36C287.716 54.3133 287.926 54.64 288.299 55.34C289.419 57.3467 289.979 59.05 289.979 60.45C289.979 61.8033 289.536 62.69 288.649 63.11ZM279.899 42.88C279.899 40.92 278.942 39.94 277.029 39.94C276.142 39.94 275.372 40.22 274.719 40.78C274.112 41.2933 273.809 42.0633 273.809 43.09V45.26H277.589C279.129 45.26 279.899 44.4667 279.899 42.88ZM322.762 16C323.555 16 323.952 18.0767 323.952 22.23C323.952 26.3367 323.555 28.39 322.762 28.39H309.952V36.37H318.492C319.285 36.37 319.682 38.19 319.682 41.83C319.682 45.4233 319.309 47.22 318.562 47.22H309.952V64.09C309.952 64.7433 309.065 65.1633 307.292 65.35C305.565 65.5833 304.119 65.7 302.952 65.7L299.662 65.56C297.375 65.28 296.232 64.8133 296.232 64.16V17.82C296.232 17.0733 296.372 16.5833 296.652 16.35C296.979 16.1167 297.445 16 298.052 16H322.762ZM341.99 64.44C341.99 64.86 339.61 65.07 334.85 65.07C331.116 65.0233 329.25 64.8367 329.25 64.51V16.84C329.25 16.14 331.513 15.79 336.04 15.79C340.006 15.93 341.99 16.1633 341.99 16.49V64.44ZM361.132 64.58C361.132 64.9533 358.985 65.14 354.692 65.14C350.445 65.14 348.322 64.9767 348.322 64.65V30.28C348.322 29.9533 350.445 29.79 354.692 29.79C358.985 29.79 361.132 29.93 361.132 30.21V64.58ZM361.132 26.08C361.132 26.4067 358.985 26.57 354.692 26.57C350.445 26.57 348.322 26.43 348.322 26.15V16.07C348.322 15.6033 350.445 15.37 354.692 15.37C358.985 15.37 361.132 15.51 361.132 15.79V26.08ZM388.463 30.21C388.649 29.8367 389.816 29.65 391.963 29.65C398.963 29.65 402.369 29.9067 402.183 30.42L393.643 48.13C399.383 58.8633 402.253 64.23 402.253 64.23C402.253 64.51 400.853 64.7433 398.053 64.93C395.253 65.1167 393.269 65.21 392.103 65.21C389.163 65.21 387.599 64.9067 387.413 64.3L383.633 52.61L379.293 64.79C379.199 65.1167 377.869 65.28 375.303 65.28C372.736 65.28 370.449 65.1867 368.443 65C366.436 64.8133 365.526 64.58 365.713 64.3L373.623 48.2C368.116 36.6733 365.363 30.8867 365.363 30.84C365.363 30.56 366.063 30.3033 367.463 30.07C368.909 29.8367 370.519 29.72 372.293 29.72C374.113 29.72 375.839 29.8133 377.473 30C379.106 30.14 380.016 30.35 380.203 30.63L383.913 41.97L388.463 30.21Z" fill="url(#paint1_linear_0_3)"></path>
                    </g>
                </g>
                <defs>
                    <filter id="filter0_d_0_3" x="0" y="1" width="89.3453" height="89.3453" filterUnits="userSpaceOnUse" color-interpolation-filters="sRGB">
                        <feFlood flood-opacity="0" result="BackgroundImageFix"></feFlood>
                        <feColorMatrix in="SourceAlpha" type="matrix" values="0 0 0 0 0 0 0 0 0 0 0 0 0 0 0 0 0 0 127 0" result="hardAlpha"></feColorMatrix>
                        <feOffset dy="4"></feOffset>
                        <feGaussianBlur stdDeviation="2"></feGaussianBlur>
                        <feComposite in2="hardAlpha" operator="out"></feComposite>
                        <feColorMatrix type="matrix" values="0 0 0 0 0 0 0 0 0 0 0 0 0 0 0 0 0 0 0.25 0"></feColorMatrix>
                        <feBlend mode="normal" in2="BackgroundImageFix" result="effect1_dropShadow_0_3"></feBlend>
                        <feBlend mode="normal" in="SourceGraphic" in2="effect1_dropShadow_0_3" result="shape"></feBlend>
                    </filter>
                    <linearGradient id="paint0_linear_0_3" x1="4" y1="41.2995" x2="85.3453" y2="41.2995" gradientUnits="userSpaceOnUse">
                        <stop stop-color="#F89E00"></stop>
                        <stop offset="1" stop-color="#DA2F68"></stop>
                    </linearGradient>
                    <linearGradient id="paint1_linear_0_3" x1="104" y1="98.6207" x2="466.568" y2="-95.92" gradientUnits="userSpaceOnUse">
                        <stop stop-color="#F89E00"></stop>
                        <stop offset="1" stop-color="#DA2F68"></stop>
                    </linearGradient>
                </defs>
            </svg>
