<svg width="430" height="430" viewBox="0 0 430 430" fill="none" xmlns="http://www.w3.org/2000/svg">
<path d="M258.245 220.047C259.962 218.943 261 217.042 261 215C261 212.958 259.962 211.057 258.245 209.953L188.245 164.953C186.398 163.766 184.051 163.682 182.125 164.734C180.198 165.785 179 167.805 179 170V260C179 262.195 180.198 264.215 182.125 265.266C184.051 266.318 186.398 266.234 188.245 265.047L258.245 220.047Z" fill="url(#paint0_linear_2119_4631)"/>
<path fill-rule="evenodd" clip-rule="evenodd" d="M35 74C31.6863 74 29 76.6863 29 80V350C29 353.314 31.6863 356 35 356H395C398.314 356 401 353.314 401 350V80C401 76.6863 398.314 74 395 74H35ZM389 164V86H331V164H389ZM319 86H111V170L111 259.988L111 260L111 260.012V344H319V86ZM331 344H389V266H331V344ZM389 254H331V176H389V254ZM99 344V266H41V344H99ZM41 254H99V176H41V254ZM41 164H99L99 86H41V164Z" fill="url(#paint1_linear_2119_4631)"/>
<defs>
<linearGradient id="paint0_linear_2119_4631" x1="44.9197" y1="59.3238" x2="218.256" y2="389.034" gradientUnits="userSpaceOnUse">
<stop stop-color="#F89E00"/>
<stop offset="0.932296" stop-color="#DA2F68"/>
</linearGradient>
<linearGradient id="paint1_linear_2119_4631" x1="44.9197" y1="59.3238" x2="218.256" y2="389.034" gradientUnits="userSpaceOnUse">
<stop stop-color="#F89E00"/>
<stop offset="0.932296" stop-color="#DA2F68"/>
</linearGradient>
</defs>
</svg>
